<svg id="visual" viewBox="0 0 920 200" width="920" height="200" xmlns="http://www.w3.org/2000/svg" xmlns:xlink="http://www.w3.org/1999/xlink" version="1.1"><rect x="0" y="0" width="920" height="200" fill="#121211"></rect><path d="M0 62L14 61C28 60 56 58 83.8 54.8C111.7 51.7 139.3 47.3 167.2 45.2C195 43 223 43 251 43.5C279 44 307 45 334.8 43.2C362.7 41.3 390.3 36.7 418.2 39.8C446 43 474 54 501.8 60.5C529.7 67 557.3 69 585.2 63.5C613 58 641 45 669 41.5C697 38 725 44 752.8 46.2C780.7 48.3 808.3 46.7 836.2 45C864 43.3 892 41.7 906 40.8L920 40L920 201L906 201C892 201 864 201 836.2 201C808.3 201 780.7 201 752.8 201C725 201 697 201 669 201C641 201 613 201 585.2 201C557.3 201 529.7 201 501.8 201C474 201 446 201 418.2 201C390.3 201 362.7 201 334.8 201C307 201 279 201 251 201C223 201 195 201 167.2 201C139.3 201 111.7 201 83.8 201C56 201 28 201 14 201L0 201Z" fill="#99fa69"></path><path d="M0 89L14 86.3C28 83.7 56 78.3 83.8 80.7C111.7 83 139.3 93 167.2 96.8C195 100.7 223 98.3 251 95.7C279 93 307 90 334.8 86.8C362.7 83.7 390.3 80.3 418.2 78C446 75.7 474 74.3 501.8 77.5C529.7 80.7 557.3 88.3 585.2 89.3C613 90.3 641 84.7 669 85.8C697 87 725 95 752.8 99.3C780.7 103.7 808.3 104.3 836.2 104C864 103.7 892 102.3 906 101.7L920 101L920 201L906 201C892 201 864 201 836.2 201C808.3 201 780.7 201 752.8 201C725 201 697 201 669 201C641 201 613 201 585.2 201C557.3 201 529.7 201 501.8 201C474 201 446 201 418.2 201C390.3 201 362.7 201 334.8 201C307 201 279 201 251 201C223 201 195 201 167.2 201C139.3 201 111.7 201 83.8 201C56 201 28 201 14 201L0 201Z" fill="#74df4c"></path><path d="M0 133L14 134.2C28 135.3 56 137.7 83.8 134.2C111.7 130.7 139.3 121.3 167.2 118.8C195 116.3 223 120.7 251 125.3C279 130 307 135 334.8 133.3C362.7 131.7 390.3 123.3 418.2 119.5C446 115.7 474 116.3 501.8 115C529.7 113.7 557.3 110.3 585.2 109.7C613 109 641 111 669 116C697 121 725 129 752.8 131.8C780.7 134.7 808.3 132.3 836.2 132.8C864 133.3 892 136.7 906 138.3L920 140L920 201L906 201C892 201 864 201 836.2 201C808.3 201 780.7 201 752.8 201C725 201 697 201 669 201C641 201 613 201 585.2 201C557.3 201 529.7 201 501.8 201C474 201 446 201 418.2 201C390.3 201 362.7 201 334.8 201C307 201 279 201 251 201C223 201 195 201 167.2 201C139.3 201 111.7 201 83.8 201C56 201 28 201 14 201L0 201Z" fill="#4ac52d"></path><path d="M0 158L14 158.3C28 158.7 56 159.3 83.8 158.2C111.7 157 139.3 154 167.2 154.8C195 155.7 223 160.3 251 163.7C279 167 307 169 334.8 166.2C362.7 163.3 390.3 155.7 418.2 151.2C446 146.7 474 145.3 501.8 146.8C529.7 148.3 557.3 152.7 585.2 157.5C613 162.3 641 167.7 669 169.3C697 171 725 169 752.8 169.2C780.7 169.3 808.3 171.7 836.2 170.2C864 168.7 892 163.3 906 160.7L920 158L920 201L906 201C892 201 864 201 836.2 201C808.3 201 780.7 201 752.8 201C725 201 697 201 669 201C641 201 613 201 585.2 201C557.3 201 529.7 201 501.8 201C474 201 446 201 418.2 201C390.3 201 362.7 201 334.8 201C307 201 279 201 251 201C223 201 195 201 167.2 201C139.3 201 111.7 201 83.8 201C56 201 28 201 14 201L0 201Z" fill="#00aa00"></path></svg>