<svg id="visual" viewBox="0 0 920 200" width="920" height="200" xmlns="http://www.w3.org/2000/svg" xmlns:xlink="http://www.w3.org/1999/xlink" version="1.1"><rect x="0" y="0" width="920" height="200" fill="#121211"></rect><path d="M0 163L14 157.2C28 151.3 56 139.7 83.8 137.8C111.7 136 139.3 144 167.2 146.2C195 148.3 223 144.7 251 143.2C279 141.7 307 142.3 334.8 142.8C362.7 143.3 390.3 143.7 418.2 144C446 144.3 474 144.7 501.8 146.3C529.7 148 557.3 151 585.2 153.2C613 155.3 641 156.7 669 155.8C697 155 725 152 752.8 148.3C780.7 144.7 808.3 140.3 836.2 140.8C864 141.3 892 146.7 906 149.3L920 152L920 0L906 0C892 0 864 0 836.2 0C808.3 0 780.7 0 752.8 0C725 0 697 0 669 0C641 0 613 0 585.2 0C557.3 0 529.7 0 501.8 0C474 0 446 0 418.2 0C390.3 0 362.7 0 334.8 0C307 0 279 0 251 0C223 0 195 0 167.2 0C139.3 0 111.7 0 83.8 0C56 0 28 0 14 0L0 0Z" fill="#99fa69"></path><path d="M0 102L14 103C28 104 56 106 83.8 110.2C111.7 114.3 139.3 120.7 167.2 122.2C195 123.7 223 120.3 251 119C279 117.7 307 118.3 334.8 118C362.7 117.7 390.3 116.3 418.2 113.5C446 110.7 474 106.3 501.8 108.2C529.7 110 557.3 118 585.2 117.8C613 117.7 641 109.3 669 108.8C697 108.3 725 115.7 752.8 116C780.7 116.3 808.3 109.7 836.2 107.5C864 105.3 892 107.7 906 108.8L920 110L920 0L906 0C892 0 864 0 836.2 0C808.3 0 780.7 0 752.8 0C725 0 697 0 669 0C641 0 613 0 585.2 0C557.3 0 529.7 0 501.8 0C474 0 446 0 418.2 0C390.3 0 362.7 0 334.8 0C307 0 279 0 251 0C223 0 195 0 167.2 0C139.3 0 111.7 0 83.8 0C56 0 28 0 14 0L0 0Z" fill="#74df4c"></path><path d="M0 83L14 83.3C28 83.7 56 84.3 83.8 80.8C111.7 77.3 139.3 69.7 167.2 68.8C195 68 223 74 251 74.2C279 74.3 307 68.7 334.8 67.7C362.7 66.7 390.3 70.3 418.2 70.5C446 70.7 474 67.3 501.8 70C529.7 72.7 557.3 81.3 585.2 80.8C613 80.3 641 70.7 669 65.7C697 60.7 725 60.3 752.8 61.2C780.7 62 808.3 64 836.2 66.2C864 68.3 892 70.7 906 71.8L920 73L920 0L906 0C892 0 864 0 836.2 0C808.3 0 780.7 0 752.8 0C725 0 697 0 669 0C641 0 613 0 585.2 0C557.3 0 529.7 0 501.8 0C474 0 446 0 418.2 0C390.3 0 362.7 0 334.8 0C307 0 279 0 251 0C223 0 195 0 167.2 0C139.3 0 111.7 0 83.8 0C56 0 28 0 14 0L0 0Z" fill="#4ac52d"></path><path d="M0 45L14 44.7C28 44.3 56 43.7 83.8 42C111.7 40.3 139.3 37.7 167.2 39.3C195 41 223 47 251 45.2C279 43.3 307 33.7 334.8 31.3C362.7 29 390.3 34 418.2 36.2C446 38.3 474 37.7 501.8 39.5C529.7 41.3 557.3 45.7 585.2 43.8C613 42 641 34 669 32C697 30 725 34 752.8 37.3C780.7 40.7 808.3 43.3 836.2 42.5C864 41.7 892 37.3 906 35.2L920 33L920 0L906 0C892 0 864 0 836.2 0C808.3 0 780.7 0 752.8 0C725 0 697 0 669 0C641 0 613 0 585.2 0C557.3 0 529.7 0 501.8 0C474 0 446 0 418.2 0C390.3 0 362.7 0 334.8 0C307 0 279 0 251 0C223 0 195 0 167.2 0C139.3 0 111.7 0 83.8 0C56 0 28 0 14 0L0 0Z" fill="#00aa00"></path></svg>