<?xml version="1.0" encoding="utf-8"?>
<!-- Svg Vector Icons : http://www.onlinewebfonts.com/icon -->
<!DOCTYPE svg PUBLIC "-//W3C//DTD SVG 1.1//EN" "http://www.w3.org/Graphics/SVG/1.1/DTD/svg11.dtd">
<svg version="1.1" xmlns="http://www.w3.org/2000/svg" xmlns:xlink="http://www.w3.org/1999/xlink" x="0px" y="0px" viewBox="0 0 1000 1000" enable-background="new 0 0 1000 1000" xml:space="preserve">
<metadata> Svg Vector Icons : http://www.onlinewebfonts.com/icon </metadata>
<g><path d="M650.6,33.7c-257.1-83-533.8,58.6-616.8,315.7c-83,257.1,58.6,533.8,315.7,616.8c257.1,83,533.8-58.6,616.8-315.7C1049.3,393.4,907.6,116.8,650.6,33.7L650.6,33.7L650.6,33.7z M591.4,283.5l142.4-46.5l-0.1-92.4c95.4,62.8,160.5,160.8,183.1,270.3l-84.3-33l-95,115.9l-104.8-6.2l-75.3-103.2L591.4,283.5L591.4,283.5L591.4,283.5z M522.6,75.2L467.8,151L556,272.1l-33,102.4l-123.1,40.3l-87.3-56.2L304.1,209L214,185.2C297.1,109.9,408.1,69.2,522.6,75.2L522.6,75.2L522.6,75.2z M158,586.7l-51.6,74.5c-36.5-89-43.4-190.6-12.3-289.1l49.1,60.1c-5.6,29.8-7.2,59.8-5.2,89.4c0.6,8.3,1.4,16.7,2.6,25c0.1,0.8,1,3.1,3.1,2.9c2-0.2,2.9-2.3,2.9-3.1c-0.2-8.2-0.2-16.5,0.2-24.6c1.1-26.9,5.6-53.8,13-80.5l132.7-51.6l85.9,55.3l0.2,126.1l-77.1,58.7L158,586.7L158,586.7L158,586.7z M369.2,905.3c-47-15.2-89.3-38.2-126.5-66.5l73.8-25.8c26.1,15.2,53.7,26.9,82.1,35.1c8,2.3,16.2,4.4,24.4,6c0.8,0.2,3.2,0.1,3.8-1.9c0.5-2-1.3-3.5-1.9-3.8c-7.8-2.6-15.5-5.4-23.1-8.6c-26.3-10.7-51.2-25.1-74.8-42.3l-3.1-138.2l76-57.8l123.6,39.9l28,91.8l-90.3,119.6l50.6,72.3C464.8,926.6,416.5,920.6,369.2,905.3L369.2,905.3L369.2,905.3z M727.2,859.8l1.5-81.5c14.7-12.1,28.7-25,41.2-39.2c5.6-6.2,10.8-12.8,15.9-19.4c0.5-0.7,1.4-2.9-0.1-4.2c-1.6-1.4-3.7-0.4-4.2,0.1c-5.7,5.9-11.5,11.7-17.7,17.2c-14,12.8-29.5,24.2-45.7,34.8l-131.1-45.2L558,627.1l71.3-98.5l106.1,6.2L816.3,661l86-22.5C869.6,733.5,806.5,809.9,727.2,859.8L727.2,859.8L727.2,859.8z"/></g>
</svg>