<svg id="visual" viewBox="0 0 960 300" width="960" height="300" xmlns="http://www.w3.org/2000/svg" xmlns:xlink="http://www.w3.org/1999/xlink" version="1.1"><rect x="0" y="0" width="960" height="300" fill="#121211"></rect><path d="M0 189L13.3 186.8C26.7 184.7 53.3 180.3 80 181.8C106.7 183.3 133.3 190.7 160 191.3C186.7 192 213.3 186 240 185.2C266.7 184.3 293.3 188.7 320 192.3C346.7 196 373.3 199 400 200.5C426.7 202 453.3 202 480 195.3C506.7 188.7 533.3 175.3 560 171.7C586.7 168 613.3 174 640 174.8C666.7 175.7 693.3 171.3 720 173.5C746.7 175.7 773.3 184.3 800 191.8C826.7 199.3 853.3 205.7 880 200.5C906.7 195.3 933.3 178.7 946.7 170.3L960 162L960 301L946.7 301C933.3 301 906.7 301 880 301C853.3 301 826.7 301 800 301C773.3 301 746.7 301 720 301C693.3 301 666.7 301 640 301C613.3 301 586.7 301 560 301C533.3 301 506.7 301 480 301C453.3 301 426.7 301 400 301C373.3 301 346.7 301 320 301C293.3 301 266.7 301 240 301C213.3 301 186.7 301 160 301C133.3 301 106.7 301 80 301C53.3 301 26.7 301 13.3 301L0 301Z" fill="#ff8f58"></path><path d="M0 198L13.3 195.2C26.7 192.3 53.3 186.7 80 185.3C106.7 184 133.3 187 160 187.8C186.7 188.7 213.3 187.3 240 186.5C266.7 185.7 293.3 185.3 320 192.3C346.7 199.3 373.3 213.7 400 214.5C426.7 215.3 453.3 202.7 480 195.3C506.7 188 533.3 186 560 184.8C586.7 183.7 613.3 183.3 640 188.7C666.7 194 693.3 205 720 208C746.7 211 773.3 206 800 200.5C826.7 195 853.3 189 880 192.3C906.7 195.7 933.3 208.3 946.7 214.7L960 221L960 301L946.7 301C933.3 301 906.7 301 880 301C853.3 301 826.7 301 800 301C773.3 301 746.7 301 720 301C693.3 301 666.7 301 640 301C613.3 301 586.7 301 560 301C533.3 301 506.7 301 480 301C453.3 301 426.7 301 400 301C373.3 301 346.7 301 320 301C293.3 301 266.7 301 240 301C213.3 301 186.7 301 160 301C133.3 301 106.7 301 80 301C53.3 301 26.7 301 13.3 301L0 301Z" fill="#fc884e"></path><path d="M0 199L13.3 204.2C26.7 209.3 53.3 219.7 80 221C106.7 222.3 133.3 214.7 160 214.5C186.7 214.3 213.3 221.7 240 225.7C266.7 229.7 293.3 230.3 320 225.2C346.7 220 373.3 209 400 205.7C426.7 202.3 453.3 206.7 480 207.3C506.7 208 533.3 205 560 203C586.7 201 613.3 200 640 202.2C666.7 204.3 693.3 209.7 720 215.2C746.7 220.7 773.3 226.3 800 229.5C826.7 232.7 853.3 233.3 880 227C906.7 220.7 933.3 207.3 946.7 200.7L960 194L960 301L946.7 301C933.3 301 906.7 301 880 301C853.3 301 826.7 301 800 301C773.3 301 746.7 301 720 301C693.3 301 666.7 301 640 301C613.3 301 586.7 301 560 301C533.3 301 506.7 301 480 301C453.3 301 426.7 301 400 301C373.3 301 346.7 301 320 301C293.3 301 266.7 301 240 301C213.3 301 186.7 301 160 301C133.3 301 106.7 301 80 301C53.3 301 26.7 301 13.3 301L0 301Z" fill="#f88244"></path><path d="M0 214L13.3 218.2C26.7 222.3 53.3 230.7 80 233.5C106.7 236.3 133.3 233.7 160 230.8C186.7 228 213.3 225 240 221.7C266.7 218.3 293.3 214.7 320 213.2C346.7 211.7 373.3 212.3 400 212.5C426.7 212.7 453.3 212.3 480 212.8C506.7 213.3 533.3 214.7 560 220.7C586.7 226.7 613.3 237.3 640 239.3C666.7 241.3 693.3 234.7 720 230.8C746.7 227 773.3 226 800 223.2C826.7 220.3 853.3 215.7 880 215C906.7 214.3 933.3 217.7 946.7 219.3L960 221L960 301L946.7 301C933.3 301 906.7 301 880 301C853.3 301 826.7 301 800 301C773.3 301 746.7 301 720 301C693.3 301 666.7 301 640 301C613.3 301 586.7 301 560 301C533.3 301 506.7 301 480 301C453.3 301 426.7 301 400 301C373.3 301 346.7 301 320 301C293.3 301 266.7 301 240 301C213.3 301 186.7 301 160 301C133.3 301 106.7 301 80 301C53.3 301 26.7 301 13.3 301L0 301Z" fill="#f57b3a"></path><path d="M0 230L13.3 234.7C26.7 239.3 53.3 248.7 80 250C106.7 251.3 133.3 244.7 160 239.3C186.7 234 213.3 230 240 229C266.7 228 293.3 230 320 230C346.7 230 373.3 228 400 228.8C426.7 229.7 453.3 233.3 480 235.8C506.7 238.3 533.3 239.7 560 242.5C586.7 245.3 613.3 249.7 640 248.7C666.7 247.7 693.3 241.3 720 236.5C746.7 231.7 773.3 228.3 800 228.3C826.7 228.3 853.3 231.7 880 235.7C906.7 239.7 933.3 244.3 946.7 246.7L960 249L960 301L946.7 301C933.3 301 906.7 301 880 301C853.3 301 826.7 301 800 301C773.3 301 746.7 301 720 301C693.3 301 666.7 301 640 301C613.3 301 586.7 301 560 301C533.3 301 506.7 301 480 301C453.3 301 426.7 301 400 301C373.3 301 346.7 301 320 301C293.3 301 266.7 301 240 301C213.3 301 186.7 301 160 301C133.3 301 106.7 301 80 301C53.3 301 26.7 301 13.3 301L0 301Z" fill="#f1752f"></path><path d="M0 267L13.3 263C26.7 259 53.3 251 80 248.8C106.7 246.7 133.3 250.3 160 252C186.7 253.7 213.3 253.3 240 251C266.7 248.7 293.3 244.3 320 246.7C346.7 249 373.3 258 400 259.8C426.7 261.7 453.3 256.3 480 254C506.7 251.7 533.3 252.3 560 253.5C586.7 254.7 613.3 256.3 640 258.3C666.7 260.3 693.3 262.7 720 260.5C746.7 258.3 773.3 251.7 800 248.7C826.7 245.7 853.3 246.3 880 250.5C906.7 254.7 933.3 262.3 946.7 266.2L960 270L960 301L946.7 301C933.3 301 906.7 301 880 301C853.3 301 826.7 301 800 301C773.3 301 746.7 301 720 301C693.3 301 666.7 301 640 301C613.3 301 586.7 301 560 301C533.3 301 506.7 301 480 301C453.3 301 426.7 301 400 301C373.3 301 346.7 301 320 301C293.3 301 266.7 301 240 301C213.3 301 186.7 301 160 301C133.3 301 106.7 301 80 301C53.3 301 26.7 301 13.3 301L0 301Z" fill="#ee6f24"></path><path d="M0 274L13.3 274.5C26.7 275 53.3 276 80 276.5C106.7 277 133.3 277 160 275.3C186.7 273.7 213.3 270.3 240 271C266.7 271.7 293.3 276.3 320 278.7C346.7 281 373.3 281 400 280.8C426.7 280.7 453.3 280.3 480 276.8C506.7 273.3 533.3 266.7 560 262.8C586.7 259 613.3 258 640 261.7C666.7 265.3 693.3 273.7 720 274C746.7 274.3 773.3 266.7 800 265.3C826.7 264 853.3 269 880 272C906.7 275 933.3 276 946.7 276.5L960 277L960 301L946.7 301C933.3 301 906.7 301 880 301C853.3 301 826.7 301 800 301C773.3 301 746.7 301 720 301C693.3 301 666.7 301 640 301C613.3 301 586.7 301 560 301C533.3 301 506.7 301 480 301C453.3 301 426.7 301 400 301C373.3 301 346.7 301 320 301C293.3 301 266.7 301 240 301C213.3 301 186.7 301 160 301C133.3 301 106.7 301 80 301C53.3 301 26.7 301 13.3 301L0 301Z" fill="#ea6815"></path><path d="M0 274L13.3 273.7C26.7 273.3 53.3 272.7 80 272.8C106.7 273 133.3 274 160 276C186.7 278 213.3 281 240 283.2C266.7 285.3 293.3 286.7 320 286.7C346.7 286.7 373.3 285.3 400 284.2C426.7 283 453.3 282 480 283C506.7 284 533.3 287 560 286.8C586.7 286.7 613.3 283.3 640 280.7C666.7 278 693.3 276 720 277.7C746.7 279.3 773.3 284.7 800 285.5C826.7 286.3 853.3 282.7 880 281.8C906.7 281 933.3 283 946.7 284L960 285L960 301L946.7 301C933.3 301 906.7 301 880 301C853.3 301 826.7 301 800 301C773.3 301 746.7 301 720 301C693.3 301 666.7 301 640 301C613.3 301 586.7 301 560 301C533.3 301 506.7 301 480 301C453.3 301 426.7 301 400 301C373.3 301 346.7 301 320 301C293.3 301 266.7 301 240 301C213.3 301 186.7 301 160 301C133.3 301 106.7 301 80 301C53.3 301 26.7 301 13.3 301L0 301Z" fill="#e66200"></path></svg>