<svg id="visual" viewBox="0 0 920 100" width="920" height="100" xmlns="http://www.w3.org/2000/svg" xmlns:xlink="http://www.w3.org/1999/xlink" version="1.1"><rect x="0" y="0" width="920" height="100" fill="#121211"></rect><path d="M0 87L17 80C34 73 68 59 102 56.7C136 54.3 170 63.7 204.2 63.8C238.3 64 272.7 55 306.8 52.3C341 49.7 375 53.3 409 58C443 62.7 477 68.3 511 70.3C545 72.3 579 70.7 613.2 71C647.3 71.3 681.7 73.7 715.8 68.5C750 63.3 784 50.7 818 46.3C852 42 886 46 903 48L920 50" fill="none" stroke-linecap="round" stroke-linejoin="miter" stroke="#00aa00" stroke-width="25"></path></svg>