<svg id="visual" viewBox="0 0 920 50" width="920" height="50" xmlns="http://www.w3.org/2000/svg" xmlns:xlink="http://www.w3.org/1999/xlink" version="1.1"><rect x="0" y="0" width="920" height="50" fill="#121211"></rect><path d="M0 10L11.8 11.3C23.7 12.7 47.3 15.3 71 20.5C94.7 25.7 118.3 33.3 141.8 35C165.3 36.7 188.7 32.3 212.2 31.8C235.7 31.3 259.3 34.7 283 36.2C306.7 37.7 330.3 37.3 354 37.5C377.7 37.7 401.3 38.3 424.8 37.3C448.3 36.3 471.7 33.7 495.2 29.5C518.7 25.3 542.3 19.7 566 21C589.7 22.3 613.3 30.7 637 31.3C660.7 32 684.3 25 707.8 21.5C731.3 18 754.7 18 778.2 18C801.7 18 825.3 18 849 21.2C872.7 24.3 896.3 30.7 908.2 33.8L920 37L920 0L908.2 0C896.3 0 872.7 0 849 0C825.3 0 801.7 0 778.2 0C754.7 0 731.3 0 707.8 0C684.3 0 660.7 0 637 0C613.3 0 589.7 0 566 0C542.3 0 518.7 0 495.2 0C471.7 0 448.3 0 424.8 0C401.3 0 377.7 0 354 0C330.3 0 306.7 0 283 0C259.3 0 235.7 0 212.2 0C188.7 0 165.3 0 141.8 0C118.3 0 94.7 0 71 0C47.3 0 23.7 0 11.8 0L0 0Z" fill="#00aa00"></path></svg>