<svg id="visual" viewBox="0 0 920 200" width="920" height="200" xmlns="http://www.w3.org/2000/svg" xmlns:xlink="http://www.w3.org/1999/xlink" version="1.1"><rect x="0" y="0" width="920" height="200" fill="#121211"></rect><path d="M0 43L14 43.3C28 43.7 56 44.3 83.8 46.7C111.7 49 139.3 53 167.2 52.5C195 52 223 47 251 48C279 49 307 56 334.8 56.8C362.7 57.7 390.3 52.3 418.2 51.5C446 50.7 474 54.3 501.8 57.2C529.7 60 557.3 62 585.2 63C613 64 641 64 669 60.5C697 57 725 50 752.8 45C780.7 40 808.3 37 836.2 38.3C864 39.7 892 45.3 906 48.2L920 51L920 201L906 201C892 201 864 201 836.2 201C808.3 201 780.7 201 752.8 201C725 201 697 201 669 201C641 201 613 201 585.2 201C557.3 201 529.7 201 501.8 201C474 201 446 201 418.2 201C390.3 201 362.7 201 334.8 201C307 201 279 201 251 201C223 201 195 201 167.2 201C139.3 201 111.7 201 83.8 201C56 201 28 201 14 201L0 201Z" fill="#99fa69"></path><path d="M0 69L14 71.5C28 74 56 79 83.8 84.3C111.7 89.7 139.3 95.3 167.2 96.5C195 97.7 223 94.3 251 93.2C279 92 307 93 334.8 94.7C362.7 96.3 390.3 98.7 418.2 98.3C446 98 474 95 501.8 89.5C529.7 84 557.3 76 585.2 78.2C613 80.3 641 92.7 669 96.8C697 101 725 97 752.8 94.8C780.7 92.7 808.3 92.3 836.2 88.7C864 85 892 78 906 74.5L920 71L920 201L906 201C892 201 864 201 836.2 201C808.3 201 780.7 201 752.8 201C725 201 697 201 669 201C641 201 613 201 585.2 201C557.3 201 529.7 201 501.8 201C474 201 446 201 418.2 201C390.3 201 362.7 201 334.8 201C307 201 279 201 251 201C223 201 195 201 167.2 201C139.3 201 111.7 201 83.8 201C56 201 28 201 14 201L0 201Z" fill="#74df4c"></path><path d="M0 106L14 110.8C28 115.7 56 125.3 83.8 125.8C111.7 126.3 139.3 117.7 167.2 115.8C195 114 223 119 251 124.3C279 129.7 307 135.3 334.8 138C362.7 140.7 390.3 140.3 418.2 138.8C446 137.3 474 134.7 501.8 130.2C529.7 125.7 557.3 119.3 585.2 119C613 118.7 641 124.3 669 125.3C697 126.3 725 122.7 752.8 120.3C780.7 118 808.3 117 836.2 118.3C864 119.7 892 123.3 906 125.2L920 127L920 201L906 201C892 201 864 201 836.2 201C808.3 201 780.7 201 752.8 201C725 201 697 201 669 201C641 201 613 201 585.2 201C557.3 201 529.7 201 501.8 201C474 201 446 201 418.2 201C390.3 201 362.7 201 334.8 201C307 201 279 201 251 201C223 201 195 201 167.2 201C139.3 201 111.7 201 83.8 201C56 201 28 201 14 201L0 201Z" fill="#4ac52d"></path><path d="M0 165L14 166.3C28 167.7 56 170.3 83.8 170.2C111.7 170 139.3 167 167.2 164.2C195 161.3 223 158.7 251 156C279 153.3 307 150.7 334.8 152.8C362.7 155 390.3 162 418.2 165.5C446 169 474 169 501.8 165.5C529.7 162 557.3 155 585.2 155.8C613 156.7 641 165.3 669 169.2C697 173 725 172 752.8 170.8C780.7 169.7 808.3 168.3 836.2 167.3C864 166.3 892 165.7 906 165.3L920 165L920 201L906 201C892 201 864 201 836.2 201C808.3 201 780.7 201 752.8 201C725 201 697 201 669 201C641 201 613 201 585.2 201C557.3 201 529.7 201 501.8 201C474 201 446 201 418.2 201C390.3 201 362.7 201 334.8 201C307 201 279 201 251 201C223 201 195 201 167.2 201C139.3 201 111.7 201 83.8 201C56 201 28 201 14 201L0 201Z" fill="#00aa00"></path></svg>