<svg id="visual" viewBox="0 0 920 100" width="920" height="100" xmlns="http://www.w3.org/2000/svg" xmlns:xlink="http://www.w3.org/1999/xlink" version="1.1"><rect x="0" y="0" width="920" height="100" fill="#121211"></rect><path d="M0 61L17 57.8C34 54.7 68 48.3 102 50.7C136 53 170 64 204.2 62.7C238.3 61.3 272.7 47.7 306.8 45.8C341 44 375 54 409 60.2C443 66.3 477 68.7 511 67.3C545 66 579 61 613.2 59.3C647.3 57.7 681.7 59.3 715.8 62C750 64.7 784 68.3 818 65.7C852 63 886 54 903 49.5L920 45" fill="none" stroke-linecap="round" stroke-linejoin="miter" stroke="#99fa69" stroke-width="25"></path></svg>